<?xml version="1.0" standalone="no"?>
<!DOCTYPE svg PUBLIC "-//W3C//DTD SVG 20010904//EN"
 "http://www.w3.org/TR/2001/REC-SVG-20010904/DTD/svg10.dtd">
<svg version="1.0" xmlns="http://www.w3.org/2000/svg"
 width="2400.000000pt" height="2229.000000pt" viewBox="0 0 2400.000000 2229.000000"
 preserveAspectRatio="xMidYMid meet">

<g transform="translate(0.000000,2229.000000) scale(0.100000,-0.100000)"
fill="#000000" stroke="none">
<path fill="#fff" d="M19455 22260 c5 -8 59 -78 121 -155 345 -434 713 -957 1021 -1452
1159 -1860 1860 -3829 2058 -5778 50 -490 70 -1236 46 -1701 -69 -1345 -359
-2583 -877 -3754 -949 -2144 -2653 -3892 -4704 -4827 -882 -402 -1753 -631
-2720 -715 -228 -20 -913 -17 -1130 5 -925 94 -1729 327 -2525 732 -1693 863
-2872 2348 -3015 3800 -17 171 -15 493 5 660 83 715 363 1240 714 1337 36 10
77 18 91 18 l26 0 12 -233 c36 -687 180 -1253 463 -1817 502 -999 1357 -1718
2494 -2095 400 -133 883 -225 1390 -267 201 -16 762 -16 945 0 937 84 1757
366 2525 870 828 542 1525 1303 2037 2222 479 858 763 1795 839 2760 14 182
14 719 -1 950 -129 2073 -908 3857 -2290 5241 -807 808 -1739 1416 -2845 1854
-1191 472 -2482 691 -3860 654 -2255 -61 -4414 -888 -6205 -2380 -2222 -1850
-3685 -4569 -4004 -7439 -93 -827 -86 -1743 20 -2650 125 -1082 411 -2184 819
-3164 160 -384 404 -891 590 -1226 748 -1344 1765 -2581 2989 -3635 85 -73 82
-68 -67 120 -936 1177 -1746 2582 -2269 3935 -435 1123 -711 2272 -812 3385
-37 401 -41 498 -41 1055 0 576 5 706 46 1110 217 2175 1061 4135 2467 5730
186 211 620 644 827 825 978 854 2061 1472 3215 1835 1395 438 2793 477 4099
114 2029 -565 3697 -2026 4194 -3674 169 -558 186 -1158 48 -1703 -140 -553
-405 -908 -705 -943 l-53 -6 -7 163 c-30 713 -178 1313 -467 1889 -343 683
-832 1217 -1499 1636 -166 104 -507 275 -701 352 -506 199 -1011 314 -1619
368 -239 22 -818 25 -1015 6 -996 -96 -1819 -391 -2625 -939 -1468 -1000
-2516 -2764 -2740 -4607 -33 -278 -42 -441 -41 -781 3 -1571 400 -3017 1179
-4295 454 -746 1076 -1450 1773 -2008 1252 -1002 2773 -1629 4479 -1847 691
-88 1470 -102 2180 -39 1799 158 3532 814 5036 1905 1423 1033 2621 2452 3424
4059 443 884 748 1740 954 2670 268 1216 325 2471 170 3800 -278 2397 -1263
4612 -2899 6525 -428 501 -998 1071 -1505 1505 -35 30 -60 48 -55 40z"/>
</g>
</svg>
